<?xml version="1.0" standalone="no"?>
<!DOCTYPE svg PUBLIC "-//W3C//DTD SVG 20010904//EN"
 "http://www.w3.org/TR/2001/REC-SVG-20010904/DTD/svg10.dtd">
<svg version="1.0" xmlns="http://www.w3.org/2000/svg"
 width="500.000000pt" height="500.000000pt" viewBox="0 0 500.000000 500.000000"
 preserveAspectRatio="xMidYMid meet">

<g transform="translate(0.000000,500.000000) scale(0.100000,-0.100000)"
fill="#000000" stroke="none">
<path d="M2325 4030 c-212 -22 -455 -100 -622 -198 -369 -216 -644 -591 -732
-993 -75 -350 -36 -697 114 -1014 144 -301 410 -569 710 -714 447 -216 953
-209 1394 20 663 343 980 1116 754 1834 -168 534 -634 946 -1179 1044 -132 24
-327 33 -439 21z m420 -35 c323 -57 644 -238 862 -485 142 -161 242 -331 306
-520 178 -525 70 -1077 -292 -1494 -223 -257 -510 -423 -861 -497 -151 -32
-419 -32 -570 0 -282 60 -512 172 -718 352 -527 458 -671 1226 -348 1845 76
147 154 251 276 374 257 256 555 397 940 444 68 8 316 -4 405 -19z"/>
<path d="M2346 3719 c-661 -64 -1161 -672 -1097 -1334 29 -296 139 -539 338
-746 107 -111 188 -173 313 -238 187 -98 312 -130 525 -138 242 -8 425 32 625
138 499 265 753 833 620 1387 -104 434 -446 782 -883 897 -81 22 -277 47 -332
44 -11 -1 -60 -6 -109 -10z m235 -713 c231 -49 401 -246 416 -481 7 -103 -9
-176 -58 -274 -65 -131 -198 -235 -343 -270 -63 -15 -179 -15 -242 0 -190 46
-354 211 -393 397 -48 233 61 467 269 576 116 62 228 78 351 52z"/>
</g>
</svg>
