<?xml version="1.0" standalone="no"?>
<!DOCTYPE svg PUBLIC "-//W3C//DTD SVG 20010904//EN"
 "http://www.w3.org/TR/2001/REC-SVG-20010904/DTD/svg10.dtd">
<svg version="1.0" xmlns="http://www.w3.org/2000/svg"
 width="1000.000000pt" height="1000.000000pt" viewBox="0 0 1000.000000 1000.000000"
 preserveAspectRatio="xMidYMid meet">

<g transform="translate(0.000000,1000.000000) scale(0.100000,-0.100000)"
fill="#000000" stroke="none">
<path d="M4790 8084 c-514 -28 -1005 -176 -1423 -428 -464 -279 -808 -625
-1087 -1090 -217 -360 -363 -802 -411 -1236 -16 -147 -16 -512 0 -655 110
-980 650 -1821 1493 -2328 145 -88 206 -119 353 -182 286 -122 595 -203 895
-236 148 -16 512 -16 660 0 300 33 609 114 895 236 367 157 712 397 997 693
470 488 760 1099 844 1777 22 177 22 544 0 724 -71 586 -290 1110 -657 1572
-107 135 -346 374 -479 479 -195 155 -449 310 -670 410 -271 122 -633 220
-920 249 -120 12 -393 20 -490 15z m490 -59 c639 -73 1219 -335 1697 -767 524
-473 853 -1081 971 -1792 24 -149 26 -183 26 -466 0 -269 -2 -322 -22 -450
-96 -605 -345 -1131 -753 -1586 -415 -463 -970 -790 -1581 -933 -226 -53 -355
-65 -678 -66 -270 0 -322 3 -450 23 -546 86 -1031 299 -1455 639 -529 424
-900 1012 -1059 1678 -83 345 -101 805 -46 1160 116 753 516 1438 1121 1921
93 74 296 211 405 272 332 188 738 319 1134 366 162 19 523 20 690 1z"/>
<path d="M4734 7460 c-678 -66 -1260 -370 -1689 -883 -387 -461 -595 -1064
-571 -1657 39 -993 630 -1842 1541 -2213 326 -133 617 -184 999 -174 379 9
665 79 1011 247 742 359 1251 1076 1366 1920 17 122 17 445 0 580 -91 731
-486 1375 -1091 1775 -396 262 -827 398 -1305 409 -93 3 -211 1 -261 -4z m428
-1434 c410 -86 742 -432 814 -848 21 -123 15 -331 -14 -440 -63 -234 -202
-440 -397 -587 -70 -53 -211 -127 -295 -154 -209 -69 -507 -63 -700 13 -320
126 -546 372 -647 705 -25 84 -27 102 -27 280 0 220 12 280 88 441 58 122 106
193 190 281 160 170 369 281 596 318 104 18 285 13 392 -9z"/>
</g>
</svg>
