<?xml version="1.0" standalone="no"?>
<!DOCTYPE svg PUBLIC "-//W3C//DTD SVG 20010904//EN"
 "http://www.w3.org/TR/2001/REC-SVG-20010904/DTD/svg10.dtd">
<svg version="1.0" xmlns="http://www.w3.org/2000/svg"
 width="1500.000000pt" height="1500.000000pt" viewBox="0 0 1500.000000 1500.000000"
 preserveAspectRatio="xMidYMid meet">

<g transform="translate(0.000000,1500.000000) scale(0.100000,-0.100000)"
fill="#000000" stroke="none">
<path d="M7195 11750 c-570 -26 -1154 -177 -1670 -430 -953 -469 -1685 -1263
-2086 -2262 -55 -139 -66 -159 -92 -169 -17 -7 -62 -34 -101 -59 -195 -127
-327 -312 -377 -527 -18 -77 -21 -113 -16 -210 10 -236 76 -385 248 -564 116
-121 156 -142 571 -313 325 -134 440 -189 490 -234 43 -39 68 -80 68 -112 0
-19 -3 -19 -62 11 -34 17 -183 82 -332 144 -408 169 -466 202 -605 344 l-84
85 7 -179 c4 -99 15 -241 25 -315 10 -74 17 -137 15 -139 -2 -2 -12 3 -22 12
-10 10 -24 17 -30 17 -10 0 -134 -147 -339 -399 l-61 -76 31 -33 c34 -36 197
-149 288 -200 97 -55 282 -124 421 -157 154 -37 424 -55 525 -36 26 6 89 17
138 27 136 25 209 50 335 115 135 71 246 159 318 255 52 70 125 204 143 265
76 258 36 554 -103 757 -29 42 -29 43 -7 31 13 -7 60 -49 105 -93 131 -132
200 -278 224 -481 34 -285 -57 -552 -256 -749 -162 -161 -368 -257 -658 -307
-201 -35 -471 -17 -686 46 l-78 22 50 -111 c184 -416 514 -891 854 -1230 994
-994 2402 -1433 3784 -1180 1197 219 2251 951 2878 1997 88 147 232 423 232
444 0 6 -28 16 -62 22 -154 30 -378 123 -507 211 -87 59 -228 192 -270 254
l-14 21 24 -21 c37 -31 161 -110 226 -143 240 -122 513 -176 768 -151 153 14
208 25 325 65 115 39 200 81 299 148 80 53 241 202 241 221 0 13 -345 429
-360 434 -5 2 -44 -27 -87 -63 -71 -60 -256 -165 -290 -165 -16 0 -16 4 2 88
85 405 99 900 39 1377 -20 164 -16 155 -78 155 -155 0 -272 -54 -401 -184
-103 -104 -155 -195 -200 -350 -41 -142 -48 -214 -42 -406 9 -263 56 -437 158
-587 24 -34 25 -40 10 -36 -35 9 -132 94 -177 156 -131 177 -186 379 -188 682
-2 266 43 442 156 622 54 85 179 200 262 241 164 81 366 82 543 2 68 -31 174
-102 207 -139 11 -11 25 -21 32 -21 10 0 342 394 367 437 14 23 -167 171 -294
241 -152 83 -398 151 -550 152 l-45 0 -49 118 c-547 1315 -1725 2273 -3126
2541 -318 61 -671 86 -1004 71z m403 -2441 c682 -75 1277 -539 1508 -1176 146
-402 150 -824 13 -1227 -150 -440 -463 -803 -881 -1021 -524 -273 -1146 -273
-1678 1 -349 180 -620 458 -795 819 -138 284 -194 553 -182 879 20 554 303
1072 765 1403 227 162 561 290 842 322 110 12 297 13 408 0z m-2613 -753 c49
-49 55 -59 55 -96 0 -56 -14 -80 -146 -247 -116 -145 -158 -183 -204 -183 -14
-1 -88 31 -165 70 -185 93 -232 105 -420 105 -144 0 -152 -1 -208 -28 -32 -16
-69 -44 -85 -64 -23 -32 -27 -46 -27 -105 0 -37 -1 -68 -3 -68 -11 0 -105 54
-131 76 -71 60 -95 169 -53 249 27 54 56 79 127 112 56 25 69 27 200 28 116 0
154 -4 225 -23 107 -29 194 -70 294 -139 80 -55 101 -59 123 -25 6 10 78 101
160 202 81 100 152 188 157 195 13 18 33 6 101 -59z"/>
<path d="M7270 9000 c-153 -26 -325 -92 -441 -171 -210 -142 -334 -324 -384
-560 -19 -93 -19 -171 0 -279 40 -228 146 -399 335 -539 94 -70 163 -104 470
-229 301 -123 464 -201 509 -243 64 -61 86 -150 60 -243 -15 -55 -81 -116
-159 -146 -58 -22 -80 -25 -205 -25 -157 0 -221 13 -364 72 -118 48 -238 119
-325 190 -16 13 -34 23 -41 21 -17 -4 -395 -460 -395 -477 0 -10 113 -103 181
-149 133 -90 355 -186 520 -226 161 -38 377 -61 479 -51 233 23 373 60 535
140 213 107 337 228 429 420 57 117 77 196 83 328 17 341 -127 608 -417 772
-52 30 -219 103 -370 163 -367 147 -455 186 -517 233 -66 50 -93 100 -93 174
0 96 41 154 145 201 52 24 76 29 176 32 200 7 361 -39 536 -153 79 -52 100
-62 112 -52 11 9 136 164 335 416 12 16 -20 47 -149 143 -153 115 -367 202
-595 243 -112 19 -317 17 -450 -5z"/>
</g>
</svg>
